# xmcd
#
# Track frame offsets:
#       150
#       11915
#       26622
#       49550
#       66855
#       82385
#       101767
#       116245
#       129695
#       144157
#       159037
#       172665
#       188202
#
# Disc length: 2739 seconds
#
# Revision: 0
# Processed by: cddbd v1.5PL3 Copyright (c) Steve Scherf et al.
# Submitted via: CD-DA_X-Tractor v0.21
#
DISCID=ab0ab10d
DTITLE=Sonny Rhodes - A Good Day To Play The Blues
DYEAR=2001
DGENRE=Blues
TTITLE0=Big Bag O' Blues
TTITLE1=Love And Harmony
TTITLE2=She's Not Happy Unless She's Sad
TTITLE3=Driving Two Ways Down A One-Way Street
TTITLE4=Honey Do Woman
TTITLE5=Ten Pounds Of Love (In A Five-Pound Sack)
TTITLE6=I Bleed Blues
TTITLE7=If The Blues Fits, Wear It
TTITLE8=I Wanna Get Your Boogie
TTITLE9=Win-Win Situation
TTITLE10=Good Man, Good Woman
TTITLE11=Monkey See, Monkey Do
TTITLE12=Good Day To Sing And Play The Blues (Van Fire Blues)
EXTD=
EXTT0=
EXTT1=
EXTT2=
EXTT3=
EXTT4=
EXTT5=
EXTT6=
EXTT7=
EXTT8=
EXTT9=
EXTT10=
EXTT11=
EXTT12=
PLAYORDER=
